<svg width="62" height="25" viewBox="0 0 62 25" fill="none" xmlns="http://www.w3.org/2000/svg">
<path d="M11.0246 5.65574V11.0451H5.4918V5.65574H1.43443V20H5.4918V14.4057H11.0246V20H15.082V5.65574H11.0246ZM21.9603 16.8648V14.2418H28.3333V11.209H21.9603V8.79098H29.1939V5.65574H17.9439V20H29.4603V16.8648H21.9603ZM41.343 20H46.0561L39.8881 12.0082L45.7488 5.65574H41.2815L35.7283 11.6189V5.65574H31.7119V20H35.7283V16.4139L37.2447 14.7951L41.343 20Z" fill="white"/>
<path d="M56.7519 20H61.465L55.297 12.0082L61.1576 5.65574H56.6904L51.1371 11.6189V5.65574H47.1207V20H51.1371V16.4139L52.6535 14.7951L56.7519 20Z" fill="#00C3A5"/>
</svg>
